<svg xmlns="http://www.w3.org/2000/svg" height="800" width="800" viewBox="0 0 512 512" xmlns:v="https://vecta.io/nano"><path d="M511.885 328.618c.246-3.99.084-9.008-.363-14.603-.1-22.314-1.552-44.52-10.281-65.406-18.076-43.2-60.173-60.581-104.692-60.581h-2.81c-18.94-1.166-38.399-.61-56.876 0H236.292c-.131 0-3.249-9.1-6.553-18.648l-.447-1.297-7.209-20.06c-5.518-11.593-12.303-22.615-20.469-32.54-17.02-20.686-39.896-35.937-65.583-43.586-22.638-6.738-50.609-9.516-73.139-1.111-4.901-.74-9.363-3.142-14.009-5.503-1.559-.826-3.141-1.613-4.762-2.292-4.029-1.791-8.328-3.172-13.284-3.172-12.882 0-19.311 6.514-16.24 19.744.394 1.698 1.645 4.345 3.234 7.402 3.01 7.078 8.745 15.035 10.852 22.167.27 1.119.363 2.046.162 2.694l-5.079 16.44-9.795 31.691C6.324 179.005-4.845 205.603 2.279 220.53c2.192 5.495 6.345 10.597 13.484 15.12 5.673 3.55 10.867 4.87 15.76 4.793.556.031 1.112.147 1.668.147 4.924 0 9.432-2.131 13.646-5.087 11.107-6.768 21.103-18.755 32.309-25.478 5.634-3.38 11.046-1.567 16.07 3.597 1.119 1.521 2.262 3.272 3.435 5.41 5.241 9.524 10.127 19.628 14.395 30.048 9.748 30.172 14.912 67.929 12.04 79.399-5.781 23.108-14.526 45.685-23.804 67.752-1.984 4.221-3.921 8.513-5.418 12.797l-.549 1.289c-9.277 21.542 7.202 41.81 30.766 41.864-1.459-.008-3.581-.008.039 0h.023c2.57-.008 5.14-.718 7.703-1.914 5.48-1.42 10.451-4.5 13.901-9.965l3.412-5.403c8.868-11.137 17.536-26.212 25.833-40.9l18.03-28.55c1.652-2.608 3.821-6.761 6.367-10.837 6.577-8.181 12.72-12.45 18.308-9.578 33.252 17.088 84.408 15.537 117.713-.718.594-.293 1.25-.301 1.906-.324.355-.008.726-.039 1.066-.016 4.106.625 9.223 5.503 14.533 12.257l1.551 2.424 21.048 33.158 7.332 13.02 19.412 30.573c12.419 19.558 45.122 21.156 56.645-.548 10.111-18.779-11.06-47.769-18.084-64.194-10.474-24.544-16.626-43.941-16.417-70.561.046-6.306-.888-59.471 7.124-55.434 4.554 2.269 7.572 6.792 9.54 12.526 2.562 11.787 2.686 28.998 2.253 44.527l-1.713 16.225c-.957 9.292-3.542 15.984.803 18.987.108.617.247.988.455.988h1.552c1.59.517 3.697.787 6.468.787h47.098c2.625 0 4.523-.324 6.144-.787h1.876c1.628 0 2.678-1.714 3.296-4.592.417-1.333.579-2.923.587-4.714zM17.654 220.083c-1.166-1.459-2.285-3.227-3.365-5.31-.826-2.871-.934-6.561-.455-10.836 2.014-8.414 7.224-18.771 9.068-24.715l14.333-46.294c1.297-4.206 9.107-19.536 6.375-24.274-1.567-11.577-14-21.858-15.56-34.501 11.624-.764 22.298 4.091 29.747 12.952 1.482 1.767 5.356 10.048 8.436 10.048 4.763 1.892 15.198-.332 20.732.572 13.63 2.215 26.69 7.432 38.352 14.773 21.796 13.708 38.167 34.44 50.131 56.977 10.667 20.099 19.15 32.78 44.172 32.78h164.633c5.233 0 12.287-1.266 17.412 0 10.906 0 15.83 12.959 18.022 21.642 2.902 11.477-4.268 14.596-6.027 26.119-.518 3.372-.742 6.861-1.043 10.327-2.091 14.773-2.161 29.53-.64 44.126l.224 10.427c.363 26.582 12.928 51.281 23.564 75.147 5.048 11.33 7.858 11.176-2.462 16.494l-20.708 10.659c-4.978 2.57-12.072-14.186-14.604-18.177-10.728-16.88-33.027-69.766-57.734-69.766-10.064.733-20.059 6.869-29.978 9.015-22.746 4.924-47.823 5.156-70.4-.872-13.33-3.558-24.667-13.97-38.121-3.419-8.244 6.452-13.53 17.058-19.056 25.81-3.18 5.033-34.795 57.919-36.67 56.946l-30.719-15.807c-.656-.34 20.306-57 22.075-63.344 12.241-43.894-8.159-99.212-33.336-135.511-23.147-33.375-54.986 28.071-77.724 23.764-2.823-.906-5.718-2.812-8.674-5.752zM55.166 156.9c14.271 0 14.271-22.129 0-22.129-14.28 0-14.28 22.129 0 22.129z" fill="currentColor" /></svg>
